<svg version="1.1" id="Layer_1" xmlns="http://www.w3.org/2000/svg" xmlns:xlink="http://www.w3.org/1999/xlink" x="0px" y="0px"
	 width="100%" viewBox="0 0 230 213" enable-background="new 0 0 230 213" xml:space="preserve">
<path fill="#060817" opacity="1.000000" stroke="none" 
	d="
M1.000000,81.000000 
	C1.000000,54.000000 1.000000,27.500004 1.000000,1.000004 
	C77.666664,1.000002 154.333328,1.000002 231.000000,1.000001 
	C231.000000,71.999992 231.000000,142.999985 231.000000,213.999969 
	C154.333344,213.999985 77.666695,213.999985 1.000022,214.000000 
	C1.000000,169.833328 1.000000,125.666664 1.000000,81.000000 
M30.453915,49.032654 
	C30.288395,49.380245 30.122875,49.727837 29.916990,50.014233 
	C29.916990,50.014233 29.980453,49.977535 29.304028,50.067436 
	C15.995053,63.731342 8.477895,80.158539 6.214827,99.004356 
	C6.004138,100.758873 6.861971,102.744339 7.563664,104.485558 
	C9.310979,108.821434 11.254558,113.078209 13.077867,118.332382 
	C13.870079,123.636749 14.662291,128.941116 15.604090,135.105972 
	C14.451217,142.088852 16.174526,148.310394 20.769505,153.652618 
	C25.528435,159.185471 29.974609,165.095230 35.342583,169.976959 
	C54.738979,187.616333 78.035439,196.363724 103.789070,199.599854 
	C103.558952,201.231659 103.018394,202.900162 103.205406,204.482681 
	C103.334915,205.578506 104.275230,207.108353 105.205750,207.432556 
	C106.159805,207.764969 107.973984,207.205536 108.606529,206.402344 
	C109.146454,205.716751 108.849831,203.992355 108.384003,202.974197 
	C107.429176,200.887161 106.112694,198.965576 104.991798,196.188446 
	C105.099205,192.124283 106.251686,188.707657 110.818428,187.094147 
	C109.095299,186.406281 107.572693,186.150192 106.039864,185.994904 
	C92.809731,184.654602 79.946396,181.947571 68.135902,175.178513 
	C69.541840,171.541534 67.754364,169.363739 64.607262,168.146942 
	C62.143730,167.194427 59.444847,166.852264 56.977463,165.907440 
	C55.592625,165.377121 53.440063,164.228043 53.388851,163.264435 
	C53.056206,157.005859 47.897850,156.023407 43.872784,155.521652 
	C38.032326,154.793610 36.890453,151.643768 35.825569,146.766373 
	C34.324333,139.890350 31.531694,133.419312 23.265551,130.554596 
	C21.828547,121.978157 19.742764,113.448700 19.117441,104.813484 
	C18.321360,93.820282 22.994072,83.877342 27.858288,73.888474 
	C32.846397,72.522263 31.709967,68.297470 32.787289,64.863876 
	C33.308346,64.524132 33.963402,64.291145 34.331272,63.829365 
	C54.132008,38.974014 81.967140,30.170546 111.726952,26.585829 
	C122.911880,25.238546 134.566345,27.789307 146.415268,29.073303 
	C153.965012,30.664368 161.514771,32.255432 169.761795,33.980270 
	C176.837082,37.636971 183.912354,41.293671 191.219925,45.585045 
	C193.489090,47.059570 195.758240,48.534100 198.261734,50.684128 
	C198.037674,51.834206 197.813614,52.984280 196.632095,54.081871 
	C193.378708,54.278248 190.125320,54.474628 186.871933,54.671005 
	C186.794922,55.544743 186.717911,56.418480 186.640915,57.292217 
	C191.852783,58.498905 197.064667,59.705589 202.868210,61.204510 
	C205.980530,64.394974 208.532166,67.484665 208.998276,72.538017 
	C209.760254,80.798965 213.289703,88.844704 210.353653,97.324944 
	C210.203262,97.759315 210.375763,98.305481 210.091614,99.158607 
	C210.286469,99.764252 210.481323,100.369904 210.898407,101.814392 
	C210.908508,103.544464 210.918625,105.274529 210.285583,107.401497 
	C209.418427,113.315285 208.291992,119.207428 207.795471,125.152168 
	C207.553864,128.045181 208.489090,131.036469 208.945602,134.805923 
	C208.333389,137.348267 208.059799,140.037460 207.034805,142.400787 
	C205.193130,146.647141 206.070831,149.900879 209.501846,152.820831 
	C227.790588,128.159485 229.135422,92.772675 212.403564,65.611229 
	C208.484436,59.249157 202.885513,53.921860 197.630524,47.638336 
	C196.712448,46.737652 195.794373,45.836967 194.787796,44.276390 
	C192.013321,41.913918 189.369141,39.374741 186.443329,37.217541 
	C166.987762,22.872969 144.827332,16.338209 120.871712,14.095402 
	C117.843788,8.425191 117.228439,8.428298 112.280937,11.558464 
	C110.867035,12.453007 108.238052,12.218368 106.470383,11.613169 
	C101.289543,9.839389 100.558128,10.148501 99.160927,15.786466 
	C85.199951,17.174919 72.132050,21.701828 58.747169,26.816784 
	C57.775471,26.461132 56.803772,26.105480 55.696255,25.700119 
	C55.414417,28.607994 55.187748,31.044411 54.940147,33.478699 
	C54.552670,37.288227 52.507313,39.633041 48.647011,39.866371 
	C42.722473,40.224476 37.324127,41.459347 33.310284,47.046608 
	C33.196087,47.395329 33.081890,47.744045 32.980522,47.972996 
	C32.980522,47.972996 33.100334,47.985401 32.448250,47.673664 
	C31.941471,48.131454 31.434692,48.589245 30.944653,48.921700 
	C30.944653,48.921700 31.070150,48.937214 30.453915,49.032654 
M176.691956,182.974899 
	C184.919128,176.572617 193.146301,170.170349 201.854828,164.034653 
	C202.485046,163.954163 203.115250,163.873672 203.745468,163.793182 
	C202.179871,160.195160 200.614258,156.597137 198.860260,152.228180 
	C198.860260,150.495117 198.860260,148.762039 198.860260,146.078339 
	C181.292526,169.110764 158.401337,181.042465 130.212219,184.995483 
	C125.895844,185.467651 121.579468,185.939819 117.263092,186.411987 
	C117.287491,186.686096 117.311890,186.960190 117.336281,187.234283 
	C121.879005,186.964111 126.421722,186.693954 131.867996,186.489288 
	C141.516785,186.538147 151.165588,186.587006 161.487137,187.131393 
	C168.301712,189.048355 173.513351,187.584702 176.691956,182.974899 
M103.726852,141.174057 
	C113.613441,126.547173 110.847336,113.051781 95.711128,103.893341 
	C91.055237,101.076202 85.907539,98.988327 80.818199,96.991821 
	C74.172028,94.384583 67.128441,92.692261 60.697937,89.666664 
	C56.150871,87.527245 52.033562,84.146568 48.370022,80.644600 
	C47.174759,79.502052 47.056614,75.130219 48.143688,74.182228 
	C49.889774,72.659538 53.193134,71.975090 55.564934,72.414101 
	C57.498226,72.771935 59.162178,75.172989 60.715359,76.877785 
	C64.300232,80.812599 67.469070,85.163315 71.299667,88.830338 
	C82.055489,99.126884 99.148636,95.248268 104.538445,81.416397 
	C105.654587,78.552032 106.326019,75.514389 107.580902,71.279228 
	C109.401054,74.714264 111.090569,77.008446 111.898460,79.579643 
	C115.734978,91.789818 119.798180,103.960548 122.853691,116.373505 
	C124.993828,125.067780 129.758453,130.023102 138.306412,131.806229 
	C147.554138,133.735352 152.969864,139.129532 153.652451,148.857803 
	C153.726852,149.918106 154.698685,150.915466 155.254257,151.942017 
	C155.941055,150.877121 157.048981,149.885590 157.249283,148.735931 
	C159.163208,137.751083 163.388870,127.727127 169.211304,118.267525 
	C172.696930,112.604492 176.045883,106.833366 179.059906,100.909180 
	C184.798828,89.629059 189.435349,77.947784 190.538010,65.915131 
	C178.022110,58.761356 165.033005,62.646175 153.291473,61.662685 
	C157.642075,68.357269 162.711899,74.417320 165.868332,81.348694 
	C174.631027,100.591042 166.802887,117.372627 156.340698,134.101791 
	C155.437180,116.282257 149.184967,100.304520 143.782593,84.135674 
	C139.902725,72.523598 132.500305,63.993401 119.963982,61.675217 
	C115.035698,60.763889 109.411720,60.430378 104.800308,61.947929 
	C100.753326,63.279739 97.678947,67.566994 93.689079,70.962372 
	C89.214470,68.502922 84.611076,65.486290 79.633369,63.336224 
	C68.695763,58.611843 58.348026,60.433456 49.234165,67.848877 
	C40.958824,74.582054 37.592495,83.404228 39.802170,94.082718 
	C42.084110,105.110428 50.431095,110.126076 59.795254,113.851822 
	C68.128326,117.167320 76.869507,119.513840 85.037148,123.167511 
	C90.085648,125.425888 94.586418,129.093781 98.963875,132.591034 
	C101.234329,134.404953 102.342552,137.390106 99.875366,140.083878 
	C97.385437,142.802490 94.334724,143.017181 91.343620,140.895630 
	C89.730026,139.751129 88.299377,138.315125 86.917572,136.883789 
	C82.988213,132.813629 79.321243,128.468903 75.188004,124.622292 
	C70.154228,119.937569 64.030235,118.130997 57.168209,119.453445 
	C44.774185,121.842018 35.640865,138.042877 39.782349,150.313614 
	C39.999397,150.956696 40.710003,151.433228 41.190834,151.987289 
	C41.787167,151.192856 42.712688,150.478012 42.927074,149.591217 
	C44.463120,143.237579 48.134624,141.033142 54.259911,143.479431 
	C58.100845,145.013367 61.626099,147.322067 65.348228,149.172028 
	C79.257385,156.085098 92.991058,153.363251 103.726852,141.174057 
M143.969421,193.920242 
	C141.157455,193.709488 138.327423,193.188721 135.537186,193.351151 
	C129.315170,193.713364 123.095009,194.280869 116.918396,195.099091 
	C115.723328,195.257401 114.730019,196.938721 112.919586,198.569839 
	C125.194489,199.862381 142.845764,197.373108 146.813034,194.091339 
	C146.064484,194.041748 145.405792,193.998108 143.969421,193.920242 
z"/>
<path fill="#7E4CEB" opacity="1.000000" stroke="none" 
	d="
M103.489662,141.443542 
	C92.991058,153.363251 79.257385,156.085098 65.348228,149.172028 
	C61.626099,147.322067 58.100845,145.013367 54.259911,143.479431 
	C48.134624,141.033142 44.463120,143.237579 42.927074,149.591217 
	C42.712688,150.478012 41.787167,151.192856 41.190834,151.987289 
	C40.710003,151.433228 39.999397,150.956696 39.782349,150.313614 
	C35.640865,138.042877 44.774185,121.842018 57.168209,119.453445 
	C64.030235,118.130997 70.154228,119.937569 75.188004,124.622292 
	C79.321243,128.468903 82.988213,132.813629 86.917572,136.883789 
	C88.299377,138.315125 89.730026,139.751129 91.343620,140.895630 
	C94.334724,143.017181 97.385437,142.802490 99.875366,140.083878 
	C102.342552,137.390106 101.234329,134.404953 98.963875,132.591034 
	C94.586418,129.093781 90.085648,125.425888 85.037148,123.167511 
	C76.869507,119.513840 68.128326,117.167320 59.795254,113.851822 
	C50.431095,110.126076 42.084110,105.110428 39.802170,94.082718 
	C37.592495,83.404228 40.958824,74.582054 49.234165,67.848877 
	C58.348026,60.433456 68.695763,58.611843 79.633369,63.336224 
	C84.611076,65.486290 89.214470,68.502922 93.689079,70.962372 
	C97.678947,67.566994 100.753326,63.279739 104.800308,61.947929 
	C109.411720,60.430378 115.035698,60.763889 119.963982,61.675217 
	C132.500305,63.993401 139.902725,72.523598 143.782593,84.135674 
	C149.184967,100.304520 155.437180,116.282257 156.340698,134.101791 
	C166.802887,117.372627 174.631027,100.591042 165.868332,81.348694 
	C162.711899,74.417320 157.642075,68.357269 153.291473,61.662685 
	C165.033005,62.646175 178.022110,58.761356 190.538010,65.915131 
	C189.435349,77.947784 184.798828,89.629059 179.059906,100.909180 
	C176.045883,106.833366 172.696930,112.604492 169.211304,118.267525 
	C163.388870,127.727127 159.163208,137.751083 157.249283,148.735931 
	C157.048981,149.885590 155.941055,150.877121 155.254257,151.942017 
	C154.698685,150.915466 153.726852,149.918106 153.652451,148.857803 
	C152.969864,139.129532 147.554138,133.735352 138.306412,131.806229 
	C129.758453,130.023102 124.993828,125.067780 122.853691,116.373505 
	C119.798180,103.960548 115.734978,91.789818 111.898460,79.579643 
	C111.090569,77.008446 109.401054,74.714264 107.580902,71.279228 
	C106.326019,75.514389 105.654587,78.552032 104.538445,81.416397 
	C99.148636,95.248268 82.055489,99.126884 71.299667,88.830338 
	C67.469070,85.163315 64.300232,80.812599 60.715359,76.877785 
	C59.162178,75.172989 57.498226,72.771935 55.564934,72.414101 
	C53.193134,71.975090 49.889774,72.659538 48.143688,74.182228 
	C47.056614,75.130219 47.174759,79.502052 48.370022,80.644600 
	C52.033562,84.146568 56.150871,87.527245 60.697937,89.666664 
	C67.128441,92.692261 74.172028,94.384583 80.818199,96.991821 
	C85.907539,98.988327 91.055237,101.076202 95.711128,103.893341 
	C110.847336,113.051781 113.613441,126.547173 103.489662,141.443542 
z"/>
<path fill="#7D4BE8" opacity="1.000000" stroke="none" 
	d="
M67.982750,175.857224 
	C79.946396,181.947571 92.809731,184.654602 106.039864,185.994904 
	C107.572693,186.150192 109.095299,186.406281 110.818428,187.094147 
	C106.251686,188.707657 105.099205,192.124283 104.759956,196.753082 
	C104.321098,197.811066 104.114090,198.304413 103.907074,198.797775 
	C78.035439,196.363724 54.738979,187.616333 35.342583,169.976959 
	C29.974609,165.095230 25.528435,159.185471 20.769505,153.652618 
	C16.174526,148.310394 14.451217,142.088852 15.649761,134.278503 
	C14.836735,128.089600 13.978039,122.728172 13.119341,117.366745 
	C11.254558,113.078209 9.310979,108.821434 7.563664,104.485558 
	C6.861971,102.744339 6.004138,100.758873 6.214827,99.004356 
	C8.477895,80.158539 15.995053,63.731342 30.007853,50.262512 
	C28.898811,57.028370 26.966413,63.570816 25.395149,70.198868 
	C25.144213,71.257385 26.512308,72.699722 27.131920,73.964615 
	C22.994072,83.877342 18.321360,93.820282 19.117441,104.813484 
	C19.742764,113.448700 21.828547,121.978157 23.389071,131.155823 
	C23.749233,133.746704 23.628338,135.865585 24.291637,137.701065 
	C26.061415,142.598404 28.666908,147.239273 30.015440,152.231857 
	C31.714396,158.521820 33.803616,164.503662 39.670448,167.813141 
	C48.395599,172.734985 57.806767,175.778824 67.982750,175.857224 
z"/>
<path fill="#7C4BE8" opacity="1.000000" stroke="none" 
	d="
M190.987640,44.950371 
	C183.912354,41.293671 176.837082,37.636971 169.190842,33.642677 
	C161.483063,29.812702 153.953796,28.191793 146.006760,28.562963 
	C134.566345,27.789307 122.911880,25.238546 111.726952,26.585829 
	C81.967140,30.170546 54.132008,38.974014 34.331272,63.829365 
	C33.963402,64.291145 33.308346,64.524132 32.433277,64.457092 
	C33.120850,58.138905 36.133404,53.711952 41.597107,50.966068 
	C51.476772,46.000866 57.413200,38.045605 59.318855,27.123838 
	C72.132050,21.701828 85.199951,17.174919 99.924057,15.867273 
	C104.811264,17.620213 108.856575,19.544138 113.089554,20.868107 
	C115.548241,21.637121 118.126656,21.454773 118.198326,17.517801 
	C118.215248,16.587999 120.002304,15.690418 120.975075,14.778015 
	C144.827332,16.338209 166.987762,22.872969 186.443329,37.217541 
	C189.369141,39.374741 192.013321,41.913918 194.437225,44.597679 
	C193.053650,44.929432 192.020645,44.939899 190.987640,44.950371 
z"/>
<path fill="#7D4BE8" opacity="1.000000" stroke="none" 
	d="
M210.397919,98.799599 
	C210.375763,98.305481 210.203262,97.759315 210.353653,97.324944 
	C213.289703,88.844704 209.760254,80.798965 208.998276,72.538017 
	C208.532166,67.484665 205.980530,64.394974 202.432281,60.752102 
	C200.527420,58.244583 199.058487,56.189472 197.589554,54.134361 
	C197.813614,52.984280 198.037674,51.834206 198.186096,50.032684 
	C198.093445,48.960323 198.076431,48.539406 198.059418,48.118484 
	C202.885513,53.921860 208.484436,59.249157 212.403564,65.611229 
	C229.135422,92.772675 227.790588,128.159485 209.501846,152.820831 
	C206.070831,149.900879 205.193130,146.647141 207.034805,142.400787 
	C208.059799,140.037460 208.333389,137.348267 209.068817,134.027954 
	C209.770935,124.501534 210.349823,115.753067 210.928726,107.004601 
	C210.918625,105.274529 210.908508,103.544464 210.840698,101.116913 
	C210.654617,99.879486 210.526260,99.339546 210.397919,98.799599 
z"/>
<path fill="#7D4BE8" opacity="1.000000" stroke="none" 
	d="
M160.814377,186.635849 
	C151.165588,186.587006 141.516785,186.538147 131.455994,186.131470 
	C131.053009,185.555527 131.062027,185.337402 131.071060,185.119263 
	C158.401337,181.042465 181.292526,169.110764 198.860260,146.078339 
	C198.860260,148.762039 198.860260,150.495117 198.909531,153.008026 
	C199.763702,157.114609 200.568588,160.441345 201.373489,163.768082 
	C193.146301,170.170349 184.919128,176.572617 176.096527,182.731400 
	C174.867111,182.292969 174.154892,182.223343 173.611145,181.883881 
	C167.624298,178.146225 167.101227,178.341064 163.944016,184.482666 
	C163.434128,185.474548 161.883774,185.931580 160.814377,186.635849 
z"/>
<path fill="#020104" opacity="1.000000" stroke="none" 
	d="
M68.059326,175.517868 
	C57.806767,175.778824 48.395599,172.734985 39.670448,167.813141 
	C33.803616,164.503662 31.714396,158.521820 30.015440,152.231857 
	C28.666908,147.239273 26.061415,142.598404 24.291637,137.701065 
	C23.628338,135.865585 23.749233,133.746704 23.647181,131.410950 
	C31.531694,133.419312 34.324333,139.890350 35.825569,146.766373 
	C36.890453,151.643768 38.032326,154.793610 43.872784,155.521652 
	C47.897850,156.023407 53.056206,157.005859 53.388851,163.264435 
	C53.440063,164.228043 55.592625,165.377121 56.977463,165.907440 
	C59.444847,166.852264 62.143730,167.194427 64.607262,168.146942 
	C67.754364,169.363739 69.541840,171.541534 68.059326,175.517868 
z"/>
<path fill="#040207" opacity="1.000000" stroke="none" 
	d="
M59.033012,26.970310 
	C57.413200,38.045605 51.476772,46.000866 41.597107,50.966068 
	C36.133404,53.711952 33.120850,58.138905 32.092583,64.419113 
	C31.709967,68.297470 32.846397,72.522263 27.495106,73.926544 
	C26.512308,72.699722 25.144213,71.257385 25.395149,70.198868 
	C26.966413,63.570816 28.898811,57.028370 30.346066,50.217564 
	C29.980453,49.977535 29.916990,50.014233 30.357574,50.204308 
	C30.888823,49.908661 30.979486,49.422939 31.070150,48.937214 
	C31.070150,48.937214 30.944653,48.921700 31.185589,49.328232 
	C31.984461,49.151642 32.542397,48.568520 33.100334,47.985401 
	C33.100334,47.985401 32.980522,47.972996 33.261936,48.008102 
	C33.686180,47.698528 33.829010,47.353844 33.971840,47.009159 
	C37.324127,41.459347 42.722473,40.224476 48.647011,39.866371 
	C52.507313,39.633041 54.552670,37.288227 54.940147,33.478699 
	C55.187748,31.044411 55.414417,28.607994 55.696255,25.700119 
	C56.803772,26.105480 57.775471,26.461132 59.033012,26.970310 
z"/>
<path fill="#020103" opacity="1.000000" stroke="none" 
	d="
M120.923393,14.436708 
	C120.002304,15.690418 118.215248,16.587999 118.198326,17.517801 
	C118.126656,21.454773 115.548241,21.637121 113.089554,20.868107 
	C108.856575,19.544138 104.811264,17.620213 100.356918,15.790567 
	C100.558128,10.148501 101.289543,9.839389 106.470383,11.613169 
	C108.238052,12.218368 110.867035,12.453007 112.280937,11.558464 
	C117.228439,8.428298 117.843788,8.425191 120.923393,14.436708 
z"/>
<path fill="#7849E0" opacity="1.000000" stroke="none" 
	d="
M144.358261,193.937347 
	C145.405792,193.998108 146.064484,194.041748 146.813034,194.091339 
	C142.845764,197.373108 125.194489,199.862381 112.919586,198.569839 
	C114.730019,196.938721 115.723328,195.257401 116.918396,195.099091 
	C123.095009,194.280869 129.315170,193.713364 135.537186,193.351151 
	C138.327423,193.188721 141.157455,193.709488 144.358261,193.937347 
z"/>
<path fill="#040309" opacity="1.000000" stroke="none" 
	d="
M161.150757,186.883621 
	C161.883774,185.931580 163.434128,185.474548 163.944016,184.482666 
	C167.101227,178.341064 167.624298,178.146225 173.611145,181.883881 
	C174.154892,182.223343 174.867111,182.292969 175.743835,182.773621 
	C173.513351,187.584702 168.301712,189.048355 161.150757,186.883621 
z"/>
<path fill="#030206" opacity="1.000000" stroke="none" 
	d="
M210.607147,107.203049 
	C210.349823,115.753067 209.770935,124.501534 209.041809,133.616638 
	C208.489090,131.036469 207.553864,128.045181 207.795471,125.152168 
	C208.291992,119.207428 209.418427,113.315285 210.607147,107.203049 
z"/>
<path fill="#010103" opacity="1.000000" stroke="none" 
	d="
M197.110825,54.108116 
	C199.058487,56.189472 200.527420,58.244583 202.136444,60.605988 
	C197.064667,59.705589 191.852783,58.498905 186.640915,57.292217 
	C186.717911,56.418480 186.794922,55.544743 186.871933,54.671005 
	C190.125320,54.474628 193.378708,54.278248 197.110825,54.108116 
z"/>
<path fill="#08050F" opacity="1.000000" stroke="none" 
	d="
M146.211014,28.818134 
	C153.953796,28.191793 161.483063,29.812702 168.842194,33.575794 
	C161.514771,32.255432 153.965012,30.664368 146.211014,28.818134 
z"/>
<path fill="#020104" opacity="1.000000" stroke="none" 
	d="
M103.848076,199.198822 
	C104.114090,198.304413 104.321098,197.811066 104.736603,197.146790 
	C106.112694,198.965576 107.429176,200.887161 108.384003,202.974197 
	C108.849831,203.992355 109.146454,205.716751 108.606529,206.402344 
	C107.973984,207.205536 106.159805,207.764969 105.205750,207.432556 
	C104.275230,207.108353 103.334915,205.578506 103.205406,204.482681 
	C103.018394,202.900162 103.558952,201.231659 103.848076,199.198822 
z"/>
<path fill="#05040C" opacity="1.000000" stroke="none" 
	d="
M13.098604,117.849564 
	C13.978039,122.728172 14.836735,128.089600 15.574967,133.848251 
	C14.662291,128.941116 13.870079,123.636749 13.098604,117.849564 
z"/>
<path fill="#05040B" opacity="1.000000" stroke="none" 
	d="
M201.614166,163.901367 
	C200.568588,160.441345 199.763702,157.114609 199.003723,153.393494 
	C200.614258,156.597137 202.179871,160.195160 203.745468,163.793182 
	C203.115250,163.873672 202.485046,163.954163 201.614166,163.901367 
z"/>
<path fill="#010103" opacity="1.000000" stroke="none" 
	d="
M197.844971,47.878410 
	C198.076431,48.539406 198.093445,48.960323 198.068939,49.694939 
	C195.758240,48.534100 193.489090,47.059570 191.103790,45.267708 
	C192.020645,44.939899 193.053650,44.929432 194.481476,44.927624 
	C195.794373,45.836967 196.712448,46.737652 197.844971,47.878410 
z"/>
<path fill="#4E3196" opacity="1.000000" stroke="none" 
	d="
M130.641632,185.057373 
	C131.062027,185.337402 131.053009,185.555527 131.004227,186.098709 
	C126.421722,186.693954 121.879005,186.964111 117.336281,187.234283 
	C117.311890,186.960190 117.287491,186.686096 117.263092,186.411987 
	C121.579468,185.939819 125.895844,185.467651 130.641632,185.057373 
z"/>
<path fill="#030206" opacity="1.000000" stroke="none" 
	d="
M210.244766,98.979103 
	C210.526260,99.339546 210.654617,99.879486 210.729584,100.697495 
	C210.481323,100.369904 210.286469,99.764252 210.244766,98.979103 
z"/>
<path fill="#7D4BE8" opacity="1.000000" stroke="none" 
	d="
M32.774292,47.829533 
	C32.542397,48.568520 31.984461,49.151642 31.177219,49.390900 
	C31.434692,48.589245 31.941471,48.131454 32.774292,47.829533 
z"/>
<path fill="#7D4BE8" opacity="1.000000" stroke="none" 
	d="
M30.762032,48.984932 
	C30.979486,49.422939 30.888823,49.908661 30.377758,50.234909 
	C30.122875,49.727837 30.288395,49.380245 30.762032,48.984932 
z"/>
<path fill="#7D4BE8" opacity="1.000000" stroke="none" 
	d="
M33.641060,47.027885 
	C33.829010,47.353844 33.686180,47.698528 33.255524,48.067986 
	C33.081890,47.744045 33.196087,47.395329 33.641060,47.027885 
z"/>
</svg>